<svg width="300" height="600" xmlns="http://www.w3.org/2000/svg">
  <rect fill="black" height="1" width="1" x="0" y="0" />
  <rect fill="black" height="1" width="1" x="1" y="0" />
  <rect fill="black" height="1" width="1" x="2" y="0" />
  <rect fill="black" height="1" width="1" x="3" y="0" />
  <rect fill="black" height="1" width="1" x="4" y="0" />
  <rect fill="black" height="1" width="1" x="5" y="0" />
  <rect fill="black" height="1" width="1" x="6" y="0" />
  <rect fill="black" height="1" width="1" x="7" y="0" />
  <rect fill="black" height="1" width="1" x="291" y="0" />
  <rect fill="black" height="1" width="1" x="292" y="0" />
  <rect fill="black" height="1" width="1" x="293" y="0" />
  <rect fill="black" height="1" width="1" x="294" y="0" />
  <rect fill="black" height="1" width="1" x="295" y="0" />
  <rect fill="black" height="1" width="1" x="296" y="0" />
  <rect fill="black" height="1" width="1" x="297" y="0" />
  <rect fill="black" height="1" width="1" x="298" y="0" />
  <rect fill="black" height="1" width="1" x="0" y="1" />
  <rect fill="black" height="1" width="1" x="1" y="1" />
  <rect fill="black" height="1" width="1" x="2" y="1" />
  <rect fill="black" height="1" width="1" x="3" y="1" />
  <rect fill="black" height="1" width="1" x="4" y="1" />
  <rect fill="black" height="1" width="1" x="5" y="1" />
  <rect fill="black" height="1" width="1" x="6" y="1" />
  <rect fill="black" height="1" width="1" x="7" y="1" />
  <rect fill="black" height="1" width="1" x="8" y="1" />
  <rect fill="black" height="1" width="1" x="292" y="1" />
  <rect fill="black" height="1" width="1" x="293" y="1" />
  <rect fill="black" height="1" width="1" x="294" y="1" />
  <rect fill="black" height="1" width="1" x="295" y="1" />
  <rect fill="black" height="1" width="1" x="296" y="1" />
  <rect fill="black" height="1" width="1" x="297" y="1" />
  <rect fill="black" height="1" width="1" x="298" y="1" />
  <rect fill="black" height="1" width="1" x="299" y="1" />
  <rect fill="black" height="1" width="1" x="300" y="1" />
  <!-- Additional SVG content continues similarly -->
</svg>